<?xml version="1.0" encoding="UTF-8" standalone="no"?>
<!-- Created with Inkscape (http://www.inkscape.org/) -->

<svg
   width="210mm"
   height="297mm"
   viewBox="0 0 210 297"
   version="1.1"
   id="svg1"
   inkscape:version="1.3.2 (1:1.3.2+202311252150+091e20ef0f)"
   sodipodi:docname="mosaico.svg"
   xmlns:inkscape="http://www.inkscape.org/namespaces/inkscape"
   xmlns:sodipodi="http://sodipodi.sourceforge.net/DTD/sodipodi-0.dtd"
   xmlns="http://www.w3.org/2000/svg"
   xmlns:svg="http://www.w3.org/2000/svg">
  <sodipodi:namedview
     id="namedview1"
     pagecolor="#ffffff"
     bordercolor="#000000"
     borderopacity="0.25"
     inkscape:showpageshadow="2"
     inkscape:pageopacity="0.0"
     inkscape:pagecheckerboard="0"
     inkscape:deskcolor="#d1d1d1"
     inkscape:document-units="mm"
     inkscape:zoom="0.44976872"
     inkscape:cx="397.98232"
     inkscape:cy="525.82581"
     inkscape:window-width="1090"
     inkscape:window-height="775"
     inkscape:window-x="780"
     inkscape:window-y="97"
     inkscape:window-maximized="0"
     inkscape:current-layer="layer1" />
  <defs
     id="defs1" />
  <g
     inkscape:label="Layer 1"
     inkscape:groupmode="layer"
     id="layer1">
    <path
       style="fill:#ff0000;stroke-width:1.556;stroke:#000000;stroke-opacity:1;stroke-dasharray:none"
       d="M 9.4699798,9.4980754 8.0992757,122.50165 108.75124,37.6488 14.11054,11.391447 Z"
       id="path1" />
    <path
       style="fill:#ffff00;stroke:#000000;stroke-width:1.556;stroke-dasharray:none;stroke-opacity:1"
       d="M 175.48682,5.8746821 118.65251,15.692634 18.070128,5.9235665 Z"
       id="path2" />
    <path
       style="fill:#0000ff;stroke:#000000;stroke-width:1.556;stroke-dasharray:none;stroke-opacity:1"
       d="M 47.37568,14.712503 120.75143,35.736614 93.646063,96.287941 205.85673,1.6041216 120.26751,24.333139 Z"
       id="path3" />
    <path
       style="fill:#00ff00;stroke:#000000;stroke-width:1.556;stroke-dasharray:none;stroke-opacity:1"
       d="M 11.557991,130.41799 C 111.17719,43.785102 111.17719,43.785102 111.17719,43.785102 L 78.042526,112.48773 111.74341,154.76372 55.856049,136.7472 44.28269,177.7433 31.959925,131.19907 13.852671,180.8123 Z"
       id="path4" />
    <path
       style="fill:#ff00ff;stroke:#000000;stroke-width:1.556;stroke-dasharray:none;stroke-opacity:1"
       d="M 91.312533,106.28779 C 204.43282,10.500808 204.43282,10.500808 204.43282,10.500808 L 203.7894,59.046302 181.28387,38.375227 144.23221,66.719335 121.95245,128.14374 109.28442,101.2426 Z"
       id="path5" />
    <path
       style="fill:#008000;stroke:#000000;stroke-width:1.556;stroke-dasharray:none;stroke-opacity:1"
       d="m 180.96439,45.476472 -32.0033,22.784114 25.73647,80.969084 28.98829,-79.87147 z"
       id="path6" />
    <path
       style="fill:#e9afaf;stroke:#000000;stroke-width:1.556;stroke-dasharray:none;stroke-opacity:1"
       d="m 144.73007,76.727456 -24.9732,67.371404 -12.68504,-36.98644 -15.526347,7.82056 33.647237,45.43516 26.99069,-60.424777 z"
       id="path7" />
    <path
       style="fill:#552200;stroke:#000000;stroke-width:1.556;stroke-dasharray:none;stroke-opacity:1"
       d="m 132.46985,166.00991 c 1.88285,-5.91845 21.31801,-57.2893 21.31801,-57.2893 l 20.63187,52.17878 32.10225,-78.711881 -0.8284,124.651761 -5.05411,-91.30406 -39.1475,87.37406 -7.62074,-67.04239 z"
       id="path8" />
    <path
       style="fill:#ffe680;stroke:#000000;stroke-width:1.556;stroke-dasharray:none;stroke-opacity:1"
       d="M 8.6658544,186.86069 8.1942799,290.56081 59.791724,262.03539 16.480907,239.86342 Z"
       id="path9" />
    <path
       style="fill:#ff6600;stroke:#000000;stroke-width:1.556;stroke-dasharray:none;stroke-opacity:1"
       d="m 31.207503,147.36872 -16.014216,40.41433 7.301685,45.80797 41.076602,24.1095 4.885,-48.01349 -39.684714,-39.79861 z"
       id="path10" />
    <path
       style="fill:#8080ff;stroke:#000000;stroke-width:1.556;stroke-dasharray:none;stroke-opacity:1"
       d="m 59.999255,145.04452 77.664305,30.85187 14.88156,-26.35482 -8.83138,35.46697 13.41873,27.32935 -22.05191,-20.84917 -24.42105,28.91006 13.71106,-33.85538 z"
       id="path11" />
    <path
       style="fill:#440055;stroke:#000000;stroke-width:1.556;stroke-dasharray:none;stroke-opacity:1"
       d="m 58.299447,150.26218 -9.678014,29.56012 36.170849,35.05524 z"
       id="path12" />
    <path
       style="fill:#ff0066;stroke:#000000;stroke-width:1.556;stroke-dasharray:none;stroke-opacity:1"
       d="m 67.107844,155.0027 c 1.764795,8.56959 31.221362,79.04122 31.221362,79.04122 l -23.527884,-20.23038 -5.014688,46.05592 46.992716,-20.54666 -10.99709,-20.4498 11.44906,-31.97597 -13.5999,6.64433 -1.88946,-15.85221 -13.079996,1.04864 0.968785,-10.83386 -8.487622,1.58678 -0.49721,-6.7378 -5.978737,-0.50023 z"
       id="path13" />
    <path
       style="fill:#a793ac;stroke:#000000;stroke-width:1.556;stroke-dasharray:none;stroke-opacity:1"
       d="m 196.85546,138.4344 -35.90063,76.1838 29.10685,28.82543 16.11813,-29.24365 -13.12682,-21.35115 5.7149,-17.70745 z"
       id="path14" />
    <path
       style="fill:#e9afdd;stroke:#000000;stroke-width:1.556;stroke-dasharray:none;stroke-opacity:1"
       d="m 137.77616,200.28491 -20.85743,21.45545 21.10689,49.12555 -2.42602,-38.18591 25.8179,12.8762 -26.34692,-32.85248 z"
       id="path15" />
    <path
       style="fill:#220055;stroke:#000000;stroke-width:1.556;stroke-dasharray:none;stroke-opacity:1"
       d="m 17.040808,292.23522 46.486028,-26.42708 20.516757,23.23581 z"
       id="path16" />
    <path
       style="fill:#3737c8;stroke:#000000;stroke-width:1.556;stroke-dasharray:none;stroke-opacity:1"
       d="M 76.760434,266.57038 C 118.76302,248.3864 118.76302,248.3864 118.76302,248.3864 l 17.80041,29.74886 -24.74771,-14.75757 29.78316,23.73279 -35.79141,-17.51488 z"
       id="path17" />
    <path
       style="fill:#55ffdd;stroke:#000000;stroke-width:1.556;stroke-dasharray:none;stroke-opacity:1"
       d="m 147.10898,214.3384 52.76629,75.68978 6.30813,-55.16024 -17.90217,19.21459 -32.11266,-39.69954 z"
       id="path18" />
    <path
       style="fill:#00222b;stroke:#000000;stroke-width:1.556;stroke-dasharray:none;stroke-opacity:1"
       d="m 143.95883,243.85848 -2.84008,31.2694 11.15033,13.9233 36.10579,-0.31375 -19.00516,-35.88924 z"
       id="path19" />
    <path
       style="fill:#afe9af;stroke:#000000;stroke-width:1.556;stroke-dasharray:none;stroke-opacity:1"
       d="m 78.708704,272.16758 11.643947,14.61556 36.746479,2.84906 z"
       id="path20" />
  </g>
</svg>
