<?xml version="1.0" encoding="UTF-8" standalone="no"?>
<!-- Created with Inkscape (http://www.inkscape.org/) -->

<svg
   width="210mm"
   height="297mm"
   viewBox="0 0 210 297"
   version="1.1"
   id="svg1"
   inkscape:version="1.3.2 (1:1.3.2+202311252150+091e20ef0f)"
   sodipodi:docname="Reto7.svg"
   xmlns:inkscape="http://www.inkscape.org/namespaces/inkscape"
   xmlns:sodipodi="http://sodipodi.sourceforge.net/DTD/sodipodi-0.dtd"
   xmlns="http://www.w3.org/2000/svg"
   xmlns:svg="http://www.w3.org/2000/svg">
  <sodipodi:namedview
     id="namedview1"
     pagecolor="#ffffff"
     bordercolor="#000000"
     borderopacity="0.25"
     inkscape:showpageshadow="2"
     inkscape:pageopacity="0.0"
     inkscape:pagecheckerboard="0"
     inkscape:deskcolor="#d1d1d1"
     inkscape:document-units="mm"
     inkscape:zoom="0.63606902"
     inkscape:cx="396.18342"
     inkscape:cy="562.04592"
     inkscape:window-width="1271"
     inkscape:window-height="761"
     inkscape:window-x="740"
     inkscape:window-y="167"
     inkscape:window-maximized="0"
     inkscape:current-layer="layer1" />
  <defs
     id="defs1" />
  <g
     inkscape:label="Layer 1"
     inkscape:groupmode="layer"
     id="layer1">
    <path
       style="fill:#e6e6e6;stroke:#000000;stroke-width:1.056;stroke-opacity:1"
       d="m 22.432175,159.1225 c -1.795654,-8.43435 -6.41249,-16.86869 1.361082,-25.30304 9.038616,-3.52449 13.022368,1.41594 19.399257,2.3488 1.004575,-6.3833 -4.915058,-12.76661 4.997842,-19.14991 17.935822,1.98854 13.260654,9.98566 22.153865,14.04128 2.399306,-2.96251 5.573335,-12.47888 13.937513,-8.12798 9.04371,-4.83465 23.581086,21.50502 13.552117,20.29169 -19.081316,-2.3085 9.994749,12.1436 -1.436029,26.93931 -13.081584,11.64288 -14.301312,5.17491 -16.561982,0.29626 -5.985336,3.10727 -15.269817,18.24697 -24.993933,7.90879 l -1.841077,-8.97529 c 0,0 -8.138354,11.03924 -15.087057,9.98939 -17.457528,-2.63758 -16.491646,-20.433 -15.481598,-20.2593 z"
       id="path1"
       sodipodi:nodetypes="ccccccsccccsc" />
    <path
       style="fill:#ffe6d5;stroke:#000000;stroke-width:1.056;stroke-opacity:1"
       d="m 133.03384,226.13356 -13.87486,-36.83722 -9.49822,-36.71389 c 0.13107,-1.55215 -0.59771,-3.05495 4.63692,-5.37564 4.22225,12.02832 9.85635,23.98115 14.26782,36.00947 l -15.18018,-55.14284 c -2.14063,-7.34885 0.35791,-6.85526 2.28456,-7.32843 1.17863,-0.0426 -2.25868,-1.74343 5.98445,3.02515 l 12.82798,49.43614 -4.22659,-54.20679 1.10252,-5.46798 c 2.55441,0.19791 4.76784,-0.38085 7.52848,3.47968 l 3.38744,54.02389 5.35201,-47.8498 c -2.00773,-4.36269 1.11471,-8.92559 4.55588,-9.49032 5.83931,1.89538 5.19259,7.28996 5.27991,9.18533 l -5.63392,51.37457 c 3.79767,-5.06064 6.67194,-11.03722 11.39342,-12.9661 l 4.4034,1.96599 c -2.18598,6.33683 -3.79001,5.60874 -6.55945,19.02879 l -5.88867,44.33753 z"
       id="path2"
       sodipodi:nodetypes="cccccccccccccccccccccc" />
  </g>
</svg>
