<?xml version="1.0" encoding="UTF-8" standalone="no"?>
<!-- Created with Inkscape (http://www.inkscape.org/) -->

<svg
   width="210mm"
   height="297mm"
   viewBox="0 0 210 297"
   version="1.1"
   id="svg1"
   inkscape:version="1.3.2 (1:1.3.2+202311252150+091e20ef0f)"
   sodipodi:docname="Reto9.svg"
   xmlns:inkscape="http://www.inkscape.org/namespaces/inkscape"
   xmlns:sodipodi="http://sodipodi.sourceforge.net/DTD/sodipodi-0.dtd"
   xmlns="http://www.w3.org/2000/svg"
   xmlns:svg="http://www.w3.org/2000/svg">
  <sodipodi:namedview
     id="namedview1"
     pagecolor="#ffffff"
     bordercolor="#000000"
     borderopacity="0.25"
     inkscape:showpageshadow="2"
     inkscape:pageopacity="0.0"
     inkscape:pagecheckerboard="0"
     inkscape:deskcolor="#d1d1d1"
     inkscape:document-units="mm"
     inkscape:zoom="0.76618338"
     inkscape:cx="410.47614"
     inkscape:cy="530.55184"
     inkscape:window-width="1452"
     inkscape:window-height="725"
     inkscape:window-x="618"
     inkscape:window-y="199"
     inkscape:window-maximized="0"
     inkscape:current-layer="layer1" />
  <defs
     id="defs1" />
  <g
     inkscape:label="Layer 1"
     inkscape:groupmode="layer"
     id="layer1">
    <path
       style="fill:#e9afaf;stroke:#000000;stroke-width:0.356;stroke-dasharray:none;stroke-opacity:1"
       d="m 73.078976,70.037368 10.946832,-16.299702 17.806442,-0.222747 10.87483,15.958318 -9.59811,16.136994 -18.927572,0.09067 z"
       id="path8"
       sodipodi:nodetypes="ccccccc" />
    <path
       style="fill:#ff8080;stroke:#000000;stroke-width:0.356;stroke-dasharray:none;stroke-opacity:1"
       d="m 102.93938,86.573497 10.94683,-16.299705 17.80644,-0.222747 10.87484,15.958322 -9.59812,16.136993 -18.92757,0.0907 z"
       id="path8-3"
       sodipodi:nodetypes="ccccccc" />
    <path
       style="fill:#e9afaf;stroke:#000000;stroke-width:0.356;stroke-dasharray:none;stroke-opacity:1"
       d="m 73.517878,103.001 10.94684,-16.299698 17.806442,-0.22275 10.87483,15.958318 -9.59811,16.13699 -18.927572,0.0907 z"
       id="path8-6"
       sodipodi:nodetypes="ccccccc" />
    <path
       style="fill:#ff8080;stroke:#000000;stroke-width:0.356;stroke-dasharray:none;stroke-opacity:1"
       d="M 43.786926,86.406602 54.733758,70.106903 72.5402,69.884156 l 10.87483,15.958316 -9.59811,16.136998 -18.927572,0.0907 z"
       id="path8-31"
       sodipodi:nodetypes="ccccccc" />
    <path
       style="fill:#e9afaf;stroke:#000000;stroke-width:0.356;stroke-dasharray:none;stroke-opacity:1"
       d="m 103.42352,119.47237 10.94684,-16.2997 17.80644,-0.22275 10.87483,15.95832 -9.59811,16.13699 -18.92757,0.0907 z"
       id="path8-0"
       sodipodi:nodetypes="ccccccc" />
    <path
       style="fill:#ff8080;stroke:#000000;stroke-width:0.356;stroke-dasharray:none;stroke-opacity:1"
       d="m 73.586758,135.25377 10.946832,-16.2997 17.80644,-0.22275 10.87483,15.95832 -9.59811,16.13699 -18.92757,0.0907 z"
       id="path8-2"
       sodipodi:nodetypes="ccccccc" />
    <path
       style="fill:#e9afaf;stroke:#000000;stroke-width:0.356;stroke-dasharray:none;stroke-opacity:1"
       d="m 43.394025,118.99772 10.946832,-16.2997 17.806442,-0.22275 10.87483,15.95832 -9.59811,16.137 -18.927572,0.0907 z"
       id="path8-9"
       sodipodi:nodetypes="ccccccc" />
    <path
       style="fill:#e9afaf;stroke:#000000;stroke-width:0.356;stroke-dasharray:none;stroke-opacity:1"
       d="m 133.21955,102.8618 10.94683,-16.299698 17.80644,-0.222747 10.87484,15.958315 -9.59812,16.137 -18.92757,0.0907 z"
       id="path8-8"
       sodipodi:nodetypes="ccccccc" />
    <path
       style="fill:#e9afaf;stroke:#000000;stroke-width:0.356;stroke-dasharray:none;stroke-opacity:1"
       d="m 102.76969,53.206739 10.94683,-16.299702 17.80644,-0.222747 10.87483,15.958318 -9.59811,16.136994 -18.92757,0.09067 z"
       id="path8-27"
       sodipodi:nodetypes="ccccccc" />
    <path
       style="fill:#e9afaf;stroke:#000000;stroke-width:0.356;stroke-dasharray:none;stroke-opacity:1"
       d="m 132.83122,69.508604 10.94683,-16.299702 17.80644,-0.222747 10.87483,15.958318 -9.59811,16.136994 -18.92757,0.09067 z"
       id="path8-1"
       sodipodi:nodetypes="ccccccc" />
    <path
       style="fill:#e9afaf;stroke:#000000;stroke-width:0.356;stroke-dasharray:none;stroke-opacity:1"
       d="m 43.068263,53.245424 10.946832,-16.299702 17.806442,-0.222747 10.87483,15.958318 -9.59811,16.136994 -18.927572,0.09067 z"
       id="path8-5"
       sodipodi:nodetypes="ccccccc" />
    <path
       style="fill:#ff8080;stroke:#000000;stroke-width:0.356;stroke-dasharray:none;stroke-opacity:1"
       d="m 72.767725,37.17605 10.946832,-16.299702 17.806433,-0.222747 10.87484,15.958318 -9.59812,16.136994 -18.927563,0.09067 z"
       id="path8-09"
       sodipodi:nodetypes="ccccccc" />
    <path
       style="fill:#ff8080;stroke:#000000;stroke-width:0.356;stroke-dasharray:none;stroke-opacity:1"
       d="m 131.8213,36.618508 10.94683,-16.299702 17.80644,-0.222747 10.87483,15.958318 -9.59811,16.136994 -18.92757,0.09067 z"
       id="path8-11"
       sodipodi:nodetypes="ccccccc" />
    <path
       style="fill:#e9afaf;stroke:#000000;stroke-width:0.356;stroke-dasharray:none;stroke-opacity:1"
       d="m 102.02596,20.207653 10.94684,-16.2997021 17.80644,-0.222747 10.87483,15.9583181 -9.59811,16.136994 -18.92757,0.09067 z"
       id="path8-7"
       sodipodi:nodetypes="ccccccc" />
    <path
       style="fill:#e9afaf;stroke:#000000;stroke-width:0.356;stroke-dasharray:none;stroke-opacity:1"
       d="m 13.393159,69.501992 10.946832,-16.299702 17.806442,-0.222747 10.87483,15.958318 -9.59811,16.136994 -18.927572,0.09067 z"
       id="path8-65"
       sodipodi:nodetypes="ccccccc" />
    <path
       style="fill:#e9afaf;stroke:#000000;stroke-width:0.356;stroke-dasharray:none;stroke-opacity:1"
       d="m 13.441104,102.49429 10.946832,-16.299697 17.806442,-0.222747 10.87483,15.958314 -9.59811,16.13699 -18.927572,0.0907 z"
       id="path8-4"
       sodipodi:nodetypes="ccccccc" />
    <path
       style="fill:#ff8080;stroke:#000000;stroke-width:0.356;stroke-dasharray:none;stroke-opacity:1"
       d="m 14.096192,135.32211 10.946832,-16.2997 17.806442,-0.22275 10.874831,15.95832 -9.59811,16.13699 -18.927573,0.0907 z"
       id="path8-93"
       sodipodi:nodetypes="ccccccc" />
    <path
       style="fill:#e9afaf;stroke:#000000;stroke-width:0.356;stroke-dasharray:none;stroke-opacity:1"
       d="m 44.878503,151.07292 10.946832,-16.29971 17.806442,-0.22274 10.874831,15.95832 -9.598111,16.13699 -18.927572,0.0907 z"
       id="path8-85"
       sodipodi:nodetypes="ccccccc" />
    <path
       style="fill:#ff8080;stroke:#000000;stroke-width:0.356;stroke-dasharray:none;stroke-opacity:1"
       d="m 132.89055,135.91183 10.94683,-16.2997 17.80644,-0.22275 10.87483,15.95832 -9.59811,16.137 -18.92757,0.0907 z"
       id="path8-38"
       sodipodi:nodetypes="ccccccc" />
    <path
       style="fill:#e9afaf;stroke:#000000;stroke-width:0.356;stroke-dasharray:none;stroke-opacity:1"
       d="m 103.34486,152.26602 10.94684,-16.29971 17.80644,-0.22274 10.87483,15.95832 -9.59811,16.13699 -18.92757,0.0907 z"
       id="path8-15"
       sodipodi:nodetypes="ccccccc" />
    <path
       style="fill:#e9afaf;stroke:#000000;stroke-width:0.356;stroke-dasharray:none;stroke-opacity:1"
       d="m 73.760632,168.85865 10.94684,-16.2997 17.806438,-0.22275 10.87483,15.95832 -9.59811,16.13699 -18.927568,0.0907 z"
       id="path8-81"
       sodipodi:nodetypes="ccccccc" />
    <path
       style="fill:#ff8080;stroke:#000000;stroke-width:0.356;stroke-dasharray:none;stroke-opacity:1"
       d="m 103.82579,185.05738 10.94683,-16.2997 17.80644,-0.22275 10.87484,15.95832 -9.59812,16.13699 -18.92757,0.0907 z"
       id="path8-44"
       sodipodi:nodetypes="ccccccc" />
    <path
       style="fill:#e9afaf;stroke:#000000;stroke-width:0.356;stroke-dasharray:none;stroke-opacity:1"
       d="m 133.6592,168.09594 10.94684,-16.2997 17.80644,-0.22275 10.87483,15.95832 -9.59811,16.13699 -18.92757,0.0907 z"
       id="path8-63"
       sodipodi:nodetypes="ccccccc" />
    <path
       style="fill:#e9afaf;stroke:#000000;stroke-width:0.356;stroke-dasharray:none;stroke-opacity:1"
       d="m 15.42425,168.26399 10.946832,-16.2997 17.806442,-0.22275 10.87483,15.95832 -9.59811,16.13699 -18.927572,0.0907 z"
       id="path8-96"
       sodipodi:nodetypes="ccccccc" />
    <path
       style="fill:#ff8080;stroke:#000000;stroke-width:0.356;stroke-dasharray:none;stroke-opacity:1"
       d="m 44.148709,183.76107 10.946832,-16.2997 17.806442,-0.22275 10.874828,15.95832 -9.598108,16.13699 -18.927572,0.0907 z"
       id="path8-857"
       sodipodi:nodetypes="ccccccc" />
    <path
       style="fill:#e9afaf;stroke:#000000;stroke-width:0.356;stroke-dasharray:none;stroke-opacity:1"
       d="m 73.940306,200.73869 10.946832,-16.2997 17.806442,-0.22275 10.87483,15.95832 -9.59811,16.13699 -18.927572,0.0907 z"
       id="path8-59"
       sodipodi:nodetypes="ccccccc" />
    <path
       style="fill:#e9afaf;stroke:#000000;stroke-width:0.356;stroke-dasharray:none;stroke-opacity:1"
       d="m 133.37282,200.64348 10.94683,-16.2997 17.80644,-0.22275 10.87484,15.95832 -9.59812,16.13699 -18.92757,0.0907 z"
       id="path8-88"
       sodipodi:nodetypes="ccccccc" />
    <path
       style="fill:#e9afaf;stroke:#000000;stroke-width:0.356;stroke-dasharray:none;stroke-opacity:1"
       d="m 103.84259,216.81658 10.94684,-16.2997 17.80644,-0.22275 10.87483,15.95832 -9.59811,16.13699 -18.92757,0.0907 z"
       id="path8-964"
       sodipodi:nodetypes="ccccccc" />
    <path
       style="fill:#e9afaf;stroke:#000000;stroke-width:0.356;stroke-dasharray:none;stroke-opacity:1"
       d="m 15.08987,201.09222 10.946832,-16.2997 17.806442,-0.22275 10.87483,15.95832 -9.59811,16.13699 -18.927572,0.0907 z"
       id="path8-86"
       sodipodi:nodetypes="ccccccc" />
    <path
       style="fill:#e9afaf;stroke:#000000;stroke-width:0.356;stroke-dasharray:none;stroke-opacity:1"
       d="m 44.649645,215.68499 10.946832,-16.2997 17.806442,-0.22275 10.87483,15.95832 -9.59811,16.13699 -18.927572,0.0907 z"
       id="path8-889"
       sodipodi:nodetypes="ccccccc" />
    <path
       style="fill:#ff8080;stroke:#000000;stroke-width:0.356;stroke-dasharray:none;stroke-opacity:1"
       d="m 74.52693,230.19525 10.94683,-16.2997 17.80644,-0.22275 10.87483,15.95832 -9.59811,16.13699 -18.92757,0.0907 z"
       id="path8-43"
       sodipodi:nodetypes="ccccccc" />
  </g>
</svg>
