<?xml version="1.0" encoding="UTF-8" standalone="no"?>
<!-- Created with Inkscape (http://www.inkscape.org/) -->

<svg
   width="210mm"
   height="297mm"
   viewBox="0 0 210 297"
   version="1.1"
   id="svg1"
   inkscape:version="1.3.2 (1:1.3.2+202311252150+091e20ef0f)"
   sodipodi:docname="Reto4.svg"
   xmlns:inkscape="http://www.inkscape.org/namespaces/inkscape"
   xmlns:sodipodi="http://sodipodi.sourceforge.net/DTD/sodipodi-0.dtd"
   xmlns="http://www.w3.org/2000/svg"
   xmlns:svg="http://www.w3.org/2000/svg">
  <sodipodi:namedview
     id="namedview1"
     pagecolor="#ffffff"
     bordercolor="#000000"
     borderopacity="0.25"
     inkscape:showpageshadow="2"
     inkscape:pageopacity="0.0"
     inkscape:pagecheckerboard="0"
     inkscape:deskcolor="#d1d1d1"
     inkscape:document-units="mm"
     inkscape:zoom="0.89953744"
     inkscape:cx="409.09915"
     inkscape:cy="361.85264"
     inkscape:window-width="1452"
     inkscape:window-height="797"
     inkscape:window-x="401"
     inkscape:window-y="157"
     inkscape:window-maximized="0"
     inkscape:current-layer="layer1" />
  <defs
     id="defs1" />
  <g
     inkscape:label="Layer 1"
     inkscape:groupmode="layer"
     id="layer1">
    <path
       style="fill:#ffff00;stroke-width:0.865;stroke:#000000;stroke-opacity:1"
       id="path1"
       sodipodi:type="arc"
       sodipodi:cx="60.772045"
       sodipodi:cy="94.665382"
       sodipodi:rx="18.439096"
       sodipodi:ry="18.949314"
       sodipodi:start="0"
       sodipodi:end="5.6457429"
       sodipodi:arc-type="slice"
       d="M 79.211142,94.665382 A 18.439096,18.949314 0 0 1 63.698089,113.37459 18.439096,18.949314 0 0 1 43.261599,100.6032 18.439096,18.949314 0 0 1 52.288643,77.840683 18.439096,18.949314 0 0 1 75.590081,83.387849 L 60.772045,94.665382 Z" />
    <path
       style="fill:#d45500;stroke:#000000;stroke-width:0.865;stroke-opacity:1"
       id="path1-9"
       sodipodi:type="arc"
       sodipodi:cx="-84.059845"
       sodipodi:cy="167.28542"
       sodipodi:rx="18.439096"
       sodipodi:ry="18.949314"
       sodipodi:start="0"
       sodipodi:end="5.5653134"
       sodipodi:arc-type="slice"
       d="m -65.620749,167.28542 a 18.439096,18.949314 0 0 1 -15.147604,18.64496 18.439096,18.949314 0 0 1 -20.555487,-11.98848 18.439096,18.949314 0 0 1 7.809046,-22.925 18.439096,18.949314 0 0 1 23.34341,3.80397 l -13.888461,12.46455 z"
       transform="rotate(-76.745482)" />
    <path
       style="fill:#000000;stroke-width:0.865"
       id="path2"
       sodipodi:type="arc"
       sodipodi:cx="62.85458"
       sodipodi:cy="82.993614"
       sodipodi:rx="3.3713317"
       sodipodi:ry="3.6498859"
       sodipodi:start="0.08515663"
       sodipodi:end="0.065762112"
       sodipodi:arc-type="slice"
       d="m 66.213695,83.304051 a 3.3713317,3.6498859 0 0 1 -3.629569,3.327686 3.3713317,3.6498859 0 0 1 -3.091284,-3.91328 3.3713317,3.6498859 0 0 1 3.599592,-3.365634 3.3713317,3.6498859 0 0 1 3.12619,3.880642 L 62.85458,82.993614 Z" />
    <path
       style="fill:#d45500;stroke:#000000;stroke-width:0.865;stroke-opacity:1"
       id="path3"
       sodipodi:type="arc"
       sodipodi:cx="51.945557"
       sodipodi:cy="161.81165"
       sodipodi:rx="13.889461"
       sodipodi:ry="14.216074"
       sodipodi:start="4.6816255"
       sodipodi:end="6.1113146"
       sodipodi:arc-type="slice"
       d="m 51.518336,147.6023 a 13.889461,14.216074 0 0 1 14.112042,11.77803 l -13.684821,2.43132 z"
       transform="rotate(-40.705592)" />
    <path
       style="fill:#b3b3b3;stroke:#000000;stroke-width:0.865;stroke-opacity:1"
       id="path4"
       sodipodi:type="arc"
       sodipodi:cx="60.207523"
       sodipodi:cy="146.60023"
       sodipodi:rx="14.6978"
       sodipodi:ry="15.766114"
       sodipodi:start="0"
       sodipodi:end="4.3459859"
       sodipodi:open="true"
       sodipodi:arc-type="arc"
       d="M 74.905323,146.60023 A 14.6978,15.766114 0 0 1 61.99817,162.24891 14.6978,15.766114 0 0 1 45.946036,150.41322 14.6978,15.766114 0 0 1 54.941896,131.88064" />
    <path
       style="fill:#ffffff;stroke:#000000;stroke-width:0.865;stroke-opacity:1"
       id="path5"
       sodipodi:type="arc"
       sodipodi:cx="-110.84378"
       sodipodi:cy="-34.153889"
       sodipodi:rx="17.758331"
       sodipodi:ry="19.536699"
       sodipodi:start="0"
       sodipodi:end="3.1534255"
       sodipodi:arc-type="arc"
       d="m -93.085449,-34.153889 a 17.758331,19.536699 0 0 1 -8.939891,16.957676 17.758331,19.536699 0 0 1 -17.81865,-0.115982 17.758331,19.536699 0 0 1 -8.75688,-17.072863"
       sodipodi:open="true"
       transform="rotate(-167.75465)" />
    <ellipse
       style="fill:#e8a7e8;fill-opacity:1;stroke:#000000;stroke-width:0.865;stroke-opacity:1"
       id="path6"
       cx="174.44408"
       cy="56.564701"
       rx="15.753726"
       ry="14.821963" />
    <path
       style="fill:none;fill-opacity:1;stroke:#000000;stroke-width:1.056;stroke-dasharray:none;stroke-opacity:1"
       id="path7"
       sodipodi:type="arc"
       sodipodi:cx="174.84235"
       sodipodi:cy="58.17643"
       sodipodi:rx="8.5141382"
       sodipodi:ry="7.4148126"
       sodipodi:start="0"
       sodipodi:end="3.1534255"
       sodipodi:open="true"
       sodipodi:arc-type="arc"
       d="m 183.35648,58.17643 a 8.5141382,7.4148126 0 0 1 -4.28618,6.435989 8.5141382,7.4148126 0 0 1 -8.54306,-0.04402 8.5141382,7.4148126 0 0 1 -4.19844,-6.479707" />
  </g>
</svg>
