<?xml version="1.0" encoding="UTF-8" standalone="no"?>
<!-- Created with Inkscape (http://www.inkscape.org/) -->

<svg
   width="210mm"
   height="297mm"
   viewBox="0 0 210 297"
   version="1.1"
   id="svg1"
   inkscape:version="1.3.2 (1:1.3.2+202311252150+091e20ef0f)"
   sodipodi:docname="Reto5.svg"
   xmlns:inkscape="http://www.inkscape.org/namespaces/inkscape"
   xmlns:sodipodi="http://sodipodi.sourceforge.net/DTD/sodipodi-0.dtd"
   xmlns="http://www.w3.org/2000/svg"
   xmlns:svg="http://www.w3.org/2000/svg">
  <sodipodi:namedview
     id="namedview1"
     pagecolor="#ffffff"
     bordercolor="#000000"
     borderopacity="0.25"
     inkscape:showpageshadow="2"
     inkscape:pageopacity="0.0"
     inkscape:pagecheckerboard="0"
     inkscape:deskcolor="#d1d1d1"
     inkscape:document-units="mm"
     inkscape:zoom="0.89953744"
     inkscape:cx="343.50988"
     inkscape:cy="678.68215"
     inkscape:window-width="1452"
     inkscape:window-height="813"
     inkscape:window-x="407"
     inkscape:window-y="167"
     inkscape:window-maximized="0"
     inkscape:current-layer="layer1" />
  <defs
     id="defs1" />
  <g
     inkscape:label="Layer 1"
     inkscape:groupmode="layer"
     id="layer1">
    <path
       style="fill:none;stroke:#000000;stroke-width:1.056"
       d="m 46.690811,120.4435 c 74.905719,0.8055 74.905719,0.8055 74.905719,0.8055"
       id="path1" />
    <path
       style="fill:#ff8080;stroke:#000000;stroke-width:1.056"
       d="m 34.674442,176.70145 c 68.687148,-0.23922 68.267568,-0.66965 68.267568,-0.66965 l -14.621052,35.46599 45.755772,11.28588 5.24936,-30.40506 38.97143,7.67369 9.197,-32.60592 -30.06846,-15.82048 -48.64987,2.49307"
       id="path2"
       sodipodi:nodetypes="ccccccccc" />
    <path
       style="fill:#ffff00;stroke:#000000;stroke-width:1.056"
       d="M 57.795072,82.6713 C 68.039754,93.894361 68.039754,93.894361 68.039754,93.894361 L 87.284114,81.485874 97.670709,93.464921 91.659087,60.716911 66.348384,56.159275 74.803512,67.46323 Z"
       id="path3" />
    <path
       style="fill:#00ff00;stroke:#000000;stroke-width:1.056"
       d="m 114.54312,62.450461 c 18.8292,5.933307 18.8292,5.933307 18.8292,5.933307 l 6.32205,-11.377697 1.62484,12.715809 17.12077,7.768473 -20.46775,2.545673 -7.54235,17.732076 -3.16459,-20.789249 z"
       id="path4" />
    <path
       style="fill:#000080;stroke:#000000;stroke-width:1.056"
       d="m 23.502929,132.40761 c 15.457673,10.60164 15.457673,10.60164 15.457673,10.60164 l -13.448993,17.87564 21.80673,-13.09984 19.769111,9.73496 -21.133495,-20.68873 -9.091023,-27.35773 0.510352,22.69145 z"
       id="path5" />
    <path
       style="fill:#ff00ff;stroke:#000000;stroke-width:1.056"
       d="m 174.07368,86.569724 c -25.06379,35.639126 -25.06379,35.639126 -25.06379,35.639126 l 38.32923,7.21494 z"
       id="path6" />
    <path
       style="fill:#00ffff;stroke:#000000;stroke-width:1.056"
       d="m 16.672711,83.724704 c 11.599981,-21.10155 11.599981,-21.10155 11.599981,-21.10155 l -5.40772,40.846976 -13.2939738,9.31188 z"
       id="path7" />
  </g>
</svg>
