<?xml version="1.0" encoding="UTF-8" standalone="no"?>
<!-- Created with Inkscape (http://www.inkscape.org/) -->

<svg
   width="210mm"
   height="297mm"
   viewBox="0 0 210 297"
   version="1.1"
   id="svg1"
   inkscape:version="1.3.2 (1:1.3.2+202311252150+091e20ef0f)"
   sodipodi:docname="Reto8.svg"
   xmlns:inkscape="http://www.inkscape.org/namespaces/inkscape"
   xmlns:sodipodi="http://sodipodi.sourceforge.net/DTD/sodipodi-0.dtd"
   xmlns="http://www.w3.org/2000/svg"
   xmlns:svg="http://www.w3.org/2000/svg">
  <sodipodi:namedview
     id="namedview1"
     pagecolor="#ffffff"
     bordercolor="#000000"
     borderopacity="0.25"
     inkscape:showpageshadow="2"
     inkscape:pageopacity="0.0"
     inkscape:pagecheckerboard="0"
     inkscape:deskcolor="#d1d1d1"
     inkscape:document-units="mm"
     inkscape:zoom="0.63606902"
     inkscape:cx="396.18342"
     inkscape:cy="562.04592"
     inkscape:window-width="1144"
     inkscape:window-height="665"
     inkscape:window-x="624"
     inkscape:window-y="215"
     inkscape:window-maximized="0"
     inkscape:current-layer="layer1" />
  <defs
     id="defs1" />
  <g
     inkscape:label="Layer 1"
     inkscape:groupmode="layer"
     id="layer1">
    <rect
       style="fill:#000000;stroke:#000000;stroke-width:0.755999;stroke-dasharray:none"
       id="rect5"
       width="209.00218"
       height="170.73482"
       x="0.84041256"
       y="56.839771" />
    <g
       id="g5"
       transform="rotate(25.867299,183.75091,322.37406)">
      <path
         id="path5"
         style="fill:#ffffff;stroke-width:0.755999"
         d="m 72.627842,141.39523 c -8.884582,4.10142 -20.161001,1.20643 -24.161056,-9.61718 -5.14682,-13.9266 4.464638,-25.48543 16.775245,-23.81238 1.933653,4.2488 -2.272988,8.7379 -3.818866,16.63838 9.730871,10.55749 10.496659,10.7646 11.204677,16.79118 z"
         sodipodi:nodetypes="csccc" />
    </g>
    <path
       sodipodi:type="star"
       style="fill:#ffff00;stroke:none;stroke-width:0.755999;stroke-dasharray:none"
       id="path6"
       inkscape:flatsided="false"
       sodipodi:sides="5"
       sodipodi:cx="36.14838"
       sodipodi:cy="126.58618"
       sodipodi:r1="4.858026"
       sodipodi:r2="2.429013"
       sodipodi:arg1="0.44316073"
       sodipodi:arg2="1.0714793"
       inkscape:rounded="0"
       inkscape:randomized="0"
       d="m 40.537125,128.66929 -3.22567,0.0494 -1.78803,2.6852 -1.043719,-3.05254 -3.106315,-0.87075 2.580617,-1.93592 -0.131777,-3.22336 2.638627,1.85608 3.024872,-1.1214 -0.949855,3.08305 z"
       inkscape:transform-center-x="0.19312241"
       inkscape:transform-center-y="0.2763741" />
    <g
       id="g7">
      <g
         id="g9">
        <g
           id="g8">
          <g
             id="g10">
            <g
               id="g11">
              <path
                 sodipodi:type="star"
                 style="fill:#ffff00;stroke:none;stroke-width:0.755999;stroke-dasharray:none"
                 id="path7"
                 inkscape:flatsided="false"
                 sodipodi:sides="5"
                 sodipodi:cx="172.92935"
                 sodipodi:cy="182.46629"
                 sodipodi:r1="20.904373"
                 sodipodi:r2="3.6428456"
                 sodipodi:arg1="1.1091078"
                 sodipodi:arg2="2.066774"
                 inkscape:rounded="0"
                 inkscape:randomized="0"
                 d="m 182.24142,201.18201 -11.04567,-15.51182 -13.18852,11.43589 11.33932,-15.29848 -14.95165,-9.00914 18.05376,6.05684 3.94789,-17.00384 -0.18148,19.04181 17.39158,-1.49981 -18.16592,5.71164 z"
                 inkscape:transform-center-x="-1.0714215"
                 inkscape:transform-center-y="-0.94955927" />
            </g>
          </g>
        </g>
      </g>
    </g>
    <path
       sodipodi:type="star"
       style="fill:#ffff00;stroke:none;stroke-width:0.755999;stroke-dasharray:none"
       id="path11"
       inkscape:flatsided="false"
       sodipodi:sides="5"
       sodipodi:cx="48.730324"
       sodipodi:cy="79.69519"
       sodipodi:r1="6.0398412"
       sodipodi:r2="2.1076946"
       sodipodi:arg1="0.78881045"
       sodipodi:arg2="-2.8922425"
       inkscape:rounded="0"
       inkscape:randomized="0"
       d="m 52.986538,83.980551 -6.298724,-4.805485 -0.717868,5.892274 2.623876,-7.475419 -5.82572,1.13808 7.920369,0.185422 -2.882625,-5.188903 2.271181,7.590017 4.04416,-4.344998 -6.516702,4.505466 z"
       inkscape:transform-center-x="0.75506932"
       inkscape:transform-center-y="-1.114167" />
    <path
       sodipodi:type="star"
       style="fill:#ffff00;stroke:none;stroke-width:0.755999;stroke-dasharray:none"
       id="path12"
       inkscape:flatsided="false"
       sodipodi:sides="5"
       sodipodi:cx="93.865059"
       sodipodi:cy="128.4306"
       sodipodi:r1="5.7634463"
       sodipodi:r2="2.0112424"
       sodipodi:arg1="1.0166208"
       sodipodi:arg2="1.6449393"
       inkscape:rounded="0"
       inkscape:randomized="0"
       d="m 96.898029,133.33146 -3.181953,-2.89514 -3.574771,2.39326 1.770166,-3.92087 -3.380788,-2.66025 4.275975,0.47191 1.485329,-4.03738 0.872532,4.21252 4.298772,0.16502 -3.73672,2.13156 z"
       inkscape:transform-center-x="-0.13192679"
       inkscape:transform-center-y="-0.42337878" />
    <path
       sodipodi:type="star"
       style="fill:#ffff00;stroke:none;stroke-width:0.755999;stroke-dasharray:none"
       id="path13"
       inkscape:flatsided="false"
       sodipodi:sides="5"
       sodipodi:cx="126.66389"
       sodipodi:cy="87.139603"
       sodipodi:r1="3.3161063"
       sodipodi:r2="1.1572059"
       sodipodi:arg1="1.849809"
       sodipodi:arg2="2.4781275"
       inkscape:rounded="0"
       inkscape:randomized="0"
       d="m 125.75061,90.327468 0.002,-2.475199 -2.40234,-0.59614 2.35453,-0.763397 -0.1754,-2.468978 1.45363,2.003394 2.29393,-0.929771 -1.45614,2.001562 1.59313,1.894347 -2.35357,-0.76636 z"
       inkscape:transform-center-x="0.28221994"
       inkscape:transform-center-y="0.036007364" />
    <path
       sodipodi:type="star"
       style="fill:#ffff00;stroke:none;stroke-width:0.755999;stroke-dasharray:none"
       id="path14"
       inkscape:flatsided="false"
       sodipodi:sides="5"
       sodipodi:cx="154.86136"
       sodipodi:cy="124.5084"
       sodipodi:r1="3.5795934"
       sodipodi:r2="1.2491537"
       sodipodi:arg1="0.34248291"
       sodipodi:arg2="0.97080144"
       inkscape:rounded="0"
       inkscape:randomized="0"
       d="m 158.23306,125.71052 -2.66638,-0.17115 -0.80669,2.54719 -0.66119,-2.58877 -2.6718,0.0199 2.25775,-1.4288 -0.84457,-2.53488 2.05655,1.70573 2.14983,-1.58655 -0.98673,2.48299 z"
       inkscape:transform-center-x="0.031328109"
       inkscape:transform-center-y="0.31188914" />
    <path
       sodipodi:type="star"
       style="fill:#ffff00;stroke:none;stroke-width:0.755999;stroke-dasharray:none"
       id="path15"
       inkscape:flatsided="false"
       sodipodi:sides="5"
       sodipodi:cx="184.94383"
       sodipodi:cy="83.964577"
       sodipodi:r1="3.3479559"
       sodipodi:r2="1.1683203"
       sodipodi:arg1="0.42777631"
       sodipodi:arg2="1.0560948"
       inkscape:rounded="0"
       inkscape:randomized="0"
       d="m 187.99011,85.353471 -2.47114,-0.371942 -0.9547,2.309418 -0.40989,-2.465129 -2.49141,-0.194326 2.21782,-1.151591 -0.58507,-2.429518 1.78057,1.753406 2.12981,-1.307198 -1.11736,2.235255 z"
       inkscape:transform-center-x="0.11729499"
       inkscape:transform-center-y="0.20608708" />
    <path
       sodipodi:type="star"
       style="fill:#ffff00;stroke:none;stroke-width:0.755999;stroke-dasharray:none"
       id="path16"
       inkscape:flatsided="false"
       sodipodi:sides="5"
       sodipodi:cx="16.948242"
       sodipodi:cy="202.2104"
       sodipodi:r1="10.210885"
       sodipodi:r2="2.212311"
       sodipodi:arg1="0.1467577"
       sodipodi:arg2="0.6546482"
       inkscape:rounded="0"
       inkscape:randomized="0"
       d="m 27.049364,203.70356 -8.346179,-0.14612 -0.0536,8.72111 -2.440143,-7.98284 -8.3108354,2.644 6.8380884,-4.78755 -5.0827822,-7.08703 6.6663142,5.02397 5.169503,-7.02403 -2.71808,7.89254 z"
       inkscape:transform-center-x="-0.52574462"
       inkscape:transform-center-y="0.46140703" />
    <path
       sodipodi:type="star"
       style="fill:#ffff00;stroke:none;stroke-width:0.755999;stroke-dasharray:none"
       id="path17"
       inkscape:flatsided="false"
       sodipodi:sides="5"
       sodipodi:cx="92.340836"
       sodipodi:cy="186.30058"
       sodipodi:r1="5.7023301"
       sodipodi:r2="1.2354784"
       sodipodi:arg1="1.3997063"
       sodipodi:arg2="2.0280249"
       inkscape:rounded="0"
       inkscape:randomized="0"
       d="m 93.311695,191.91966 -1.516278,-4.51051 -4.498627,1.55116 3.82119,-2.83588 -2.865395,-3.79912 3.877902,2.75783 2.727716,-3.89914 -1.424514,4.54032 4.551216,1.38931 -4.758301,0.0482 z"
       inkscape:transform-center-x="-0.30001078"
       inkscape:transform-center-y="0.25124327" />
    <path
       sodipodi:type="star"
       style="fill:#ffff00;stroke:none;stroke-width:0.755999;stroke-dasharray:none"
       id="path18"
       inkscape:flatsided="false"
       sodipodi:sides="5"
       sodipodi:cx="137.85838"
       sodipodi:cy="210.44946"
       sodipodi:r1="3.0010014"
       sodipodi:r2="0.65020299"
       sodipodi:arg1="0.41699598"
       sodipodi:arg2="1.0453145"
       inkscape:rounded="0"
       inkscape:randomized="0"
       d="m 140.60223,211.66492 -2.41769,-0.65298 -0.63423,2.42267 -0.12609,-2.50113 -2.50008,0.14545 2.33976,-0.89281 -0.91091,-2.33277 1.57214,1.94934 1.93711,-1.58718 -1.36812,2.09757 z"
       inkscape:transform-center-x="0.095200429"
       inkscape:transform-center-y="0.19451417" />
    <path
       sodipodi:type="star"
       style="fill:#ffff00;stroke:none;stroke-width:0.755999;stroke-dasharray:none"
       id="path19"
       inkscape:flatsided="false"
       sodipodi:sides="5"
       sodipodi:cx="192.54131"
       sodipodi:cy="212.77786"
       sodipodi:r1="6.3892884"
       sodipodi:r2="1.3843161"
       sodipodi:arg1="0.97722377"
       sodipodi:arg2="1.6055423"
       inkscape:rounded="0"
       inkscape:randomized="0"
       d="m 196.115,218.07425 -3.62178,-3.91291 -3.88474,3.65198 2.6022,-4.65367 -4.67369,-2.56609 5.23003,1.03678 0.99624,-5.23791 0.63014,5.29444 5.2894,-0.67112 -4.84059,2.23537 z"
       inkscape:transform-center-x="-0.068586178"
       inkscape:transform-center-y="-0.54452555" />
    <path
       sodipodi:type="star"
       style="fill:#ffff00;stroke:none;stroke-width:0.755999;stroke-dasharray:none"
       id="path20"
       inkscape:flatsided="false"
       sodipodi:sides="5"
       sodipodi:cx="68.431801"
       sodipodi:cy="213.22577"
       sodipodi:r1="10.151635"
       sodipodi:r2="2.7343394"
       sodipodi:arg1="-0.98381892"
       sodipodi:arg2="-0.2311364"
       inkscape:rounded="0"
       inkscape:randomized="0"
       d="m 74.054252,204.77333 -2.960827,7.82605 7.114557,3.36171 -8.357959,-0.39753 -0.998662,7.80517 -2.204675,-8.07173 -7.731763,1.46214 6.995394,-4.59107 -3.779831,-6.90152 6.528067,5.2343 z"
       inkscape:transform-center-x="-0.12965049"
       inkscape:transform-center-y="0.84525825" />
    <path
       sodipodi:type="star"
       style="fill:#ffff00;stroke:none;stroke-width:0.755999;stroke-dasharray:none"
       id="path21"
       inkscape:flatsided="false"
       sodipodi:sides="5"
       sodipodi:cx="103.6693"
       sodipodi:cy="158.13601"
       sodipodi:r1="4.9688873"
       sodipodi:r2="1.3383681"
       sodipodi:arg1="1.0516097"
       sodipodi:arg2="1.6799282"
       inkscape:rounded="0"
       inkscape:randomized="0"
       d="m 106.13473,162.45012 -2.6112,-2.9837 -3.19533,2.34749 2.03076,-3.40541 -3.220007,-2.31352 3.866277,0.87903 1.20525,-3.77732 0.35874,3.94869 3.96489,-0.021 -3.64457,1.56139 z"
       inkscape:transform-center-x="-0.16723501"
       inkscape:transform-center-y="-0.31261458" />
    <path
       sodipodi:type="star"
       style="fill:#ffff00;stroke:none;stroke-width:0.755999;stroke-dasharray:none"
       id="path22"
       inkscape:flatsided="false"
       sodipodi:sides="5"
       sodipodi:cx="192.04648"
       sodipodi:cy="133.19936"
       sodipodi:r1="3.6891775"
       sodipodi:r2="0.99367875"
       sodipodi:arg1="0.94553879"
       sodipodi:arg2="1.5738573"
       inkscape:rounded="0"
       inkscape:randomized="0"
       d="m 194.20578,136.19059 -2.16234,-1.99756 -2.17453,1.98428 1.23159,-2.67378 -2.55913,-1.45493 2.9235,0.34507 0.5929,-2.88347 0.57524,2.88704 2.92556,-0.32716 -2.56799,1.43923 z"
       inkscape:transform-center-x="-0.003487161"
       inkscape:transform-center-y="-0.34896635" />
    <path
       sodipodi:type="star"
       style="fill:#ffff00;stroke:none;stroke-width:0.755999;stroke-dasharray:none"
       id="path23"
       inkscape:flatsided="false"
       sodipodi:sides="5"
       sodipodi:cx="194.20578"
       sodipodi:cy="103.42001"
       sodipodi:r1="7.5872407"
       sodipodi:r2="2.0436206"
       sodipodi:arg1="2.4485137"
       sodipodi:arg2="3.0768323"
       inkscape:rounded="0"
       inkscape:randomized="0"
       d="m 188.36905,108.26757 3.79739,-4.7153 -4.37461,-4.185341 5.65798,2.154431 2.62866,-5.453845 -0.30057,6.046815 5.99922,0.81467 -5.84375,1.58271 1.07906,5.95734 -3.31106,-5.06864 z"
       inkscape:transform-center-x="-0.57869178"
       inkscape:transform-center-y="-0.15173153" />
    <path
       sodipodi:type="star"
       style="fill:#9393ac;stroke:none;stroke-width:0.755999;stroke-dasharray:none"
       id="path24"
       inkscape:flatsided="false"
       sodipodi:sides="5"
       sodipodi:cx="75.796143"
       sodipodi:cy="86.36972"
       sodipodi:r1="5.2988572"
       sodipodi:r2="1.4272454"
       sodipodi:arg1="0.60782209"
       sodipodi:arg2="1.2361406"
       inkscape:rounded="0"
       inkscape:randomized="0"
       d="m 80.145941,89.395797 -3.881028,-1.67801 -2.002579,3.723947 0.396579,-4.209611 -4.160515,-0.753802 4.126128,-0.923673 -0.568761,-4.189822 2.153508,3.638749 3.809001,-1.83565 -2.795186,3.172544 z"
       inkscape:transform-center-x="0.47397376"
       inkscape:transform-center-y="0.033558193" />
    <path
       sodipodi:type="star"
       style="fill:#b7b7c8;stroke:none;stroke-width:0.755999;stroke-dasharray:none"
       id="path25"
       inkscape:flatsided="false"
       sodipodi:sides="5"
       sodipodi:cx="126.29866"
       sodipodi:cy="140.90932"
       sodipodi:r1="6.6727057"
       sodipodi:r2="1.7972912"
       sodipodi:arg1="1.0874058"
       sodipodi:arg2="1.7157243"
       inkscape:rounded="0"
       inkscape:randomized="0"
       d="m 129.40003,146.81749 -3.36094,-4.12972 -4.40106,2.99685 2.88901,-4.47259 -4.21018,-3.25959 5.14645,1.36551 1.79903,-5.01138 0.29166,5.31652 5.32204,0.16238 -4.96618,1.92028 z"
       inkscape:transform-center-x="-0.29779185"
       inkscape:transform-center-y="-0.34729004" />
    <path
       sodipodi:type="star"
       style="fill:#9393ac;stroke:none;stroke-width:0.755999;stroke-dasharray:none"
       id="path26"
       inkscape:flatsided="false"
       sodipodi:sides="5"
       sodipodi:cx="27.894756"
       sodipodi:cy="155.23195"
       sodipodi:r1="3.2269239"
       sodipodi:r2="0.86917084"
       sodipodi:arg1="0.68213184"
       sodipodi:arg2="1.3104504"
       inkscape:rounded="0"
       inkscape:randomized="0"
       d="m 30.399593,157.26636 -2.281099,-1.19453 -1.384541,2.17103 0.431168,-2.53859 -2.492617,-0.64589 2.547575,-0.3744 -0.155981,-2.57021 1.14332,2.30719 2.396216,-0.94258 -1.840965,1.80032 z"
       inkscape:transform-center-x="0.25668784"
       inkscape:transform-center-y="-0.05363731" />
    <path
       sodipodi:type="star"
       style="fill:#9393ac;stroke:none;stroke-width:0.755999;stroke-dasharray:none"
       id="path27"
       inkscape:flatsided="false"
       sodipodi:sides="5"
       sodipodi:cx="142.81734"
       sodipodi:cy="174.29085"
       sodipodi:r1="4.4782333"
       sodipodi:r2="1.2062104"
       sodipodi:arg1="1.1901236"
       sodipodi:arg2="1.8184421"
       inkscape:rounded="0"
       inkscape:randomized="0"
       d="m 144.4812,178.44851 -1.95953,-2.98825 -3.14434,1.69781 2.23646,-2.78705 -2.58636,-2.46579 3.34175,1.26575 1.54587,-3.22174 -0.17115,3.56932 3.54177,0.47464 -3.44752,0.94021 z"
       inkscape:transform-center-x="-0.33921068"
       inkscape:transform-center-y="-0.091978983" />
    <path
       sodipodi:type="star"
       style="fill:#9393ac;stroke:none;stroke-width:0.755999;stroke-dasharray:none"
       id="path28"
       inkscape:flatsided="false"
       sodipodi:sides="5"
       sodipodi:cx="7.8432407"
       sodipodi:cy="70.750305"
       sodipodi:r1="4.8644738"
       sodipodi:r2="1.3102442"
       sodipodi:arg1="1.2589627"
       sodipodi:arg2="1.8872812"
       inkscape:rounded="0"
       inkscape:randomized="0"
       d="M 9.3356825,75.380178 7.4354561,71.995476 3.9011598,73.600411 6.5330001,70.747258 3.914459,67.881895 7.4412521,69.503251 9.3572011,66.127424 8.9050387,69.98263 12.707701,70.761618 8.9014567,71.52291 Z"
       inkscape:transform-center-x="-0.46118981"
       inkscape:transform-center-y="0.0034949644" />
    <path
       sodipodi:type="star"
       style="fill:#9393ac;stroke:none;stroke-width:0.755999;stroke-dasharray:none"
       id="path29"
       inkscape:flatsided="false"
       sodipodi:sides="5"
       sodipodi:cx="109.87977"
       sodipodi:cy="79.842026"
       sodipodi:r1="2.725069"
       sodipodi:r2="0.73399633"
       sodipodi:arg1="1.4354595"
       sodipodi:arg2="2.0637781"
       inkscape:rounded="0"
       inkscape:randomized="0"
       d="m 110.24745,82.542177 -0.71505,-2.053555 -2.10701,0.537478 1.73209,-1.314631 -1.16228,-1.837796 1.78553,1.241068 1.38869,-1.673299 -0.62857,2.081654 2.02053,0.80364 -2.174,0.04547 z"
       inkscape:transform-center-x="-0.11361715"
       inkscape:transform-center-y="0.14978281" />
    <path
       sodipodi:type="star"
       style="fill:#9393ac;stroke:none;stroke-width:0.755999;stroke-dasharray:none"
       id="path30"
       inkscape:flatsided="false"
       sodipodi:sides="5"
       sodipodi:cx="139.41399"
       sodipodi:cy="71.081238"
       sodipodi:r1="12.211569"
       sodipodi:r2="3.2303078"
       sodipodi:arg1="0.48415635"
       sodipodi:arg2="0.79222604"
       inkscape:rounded="0"
       inkscape:randomized="0"
       d="m 150.22205,76.765257 -8.53954,-3.384304 -4.33447,9.735827 0.5798,-9.167397 -10.59875,-1.11379 8.89788,-2.281459 -2.21591,-10.424187 4.91939,7.757377 9.22924,-5.328711 -5.85753,7.075782 z"
       inkscape:transform-center-x="0.63841442"
       inkscape:transform-center-y="0.54212456" />
    <path
       sodipodi:type="star"
       style="fill:#9393ac;stroke:none;stroke-width:0.755999;stroke-dasharray:none"
       id="path31"
       inkscape:flatsided="false"
       sodipodi:sides="5"
       sodipodi:cx="16.154495"
       sodipodi:cy="96.699409"
       sodipodi:r1="3.9588974"
       sodipodi:r2="1.0472411"
       sodipodi:arg1="0.65474469"
       sodipodi:arg2="1.2830632"
       inkscape:rounded="0"
       inkscape:randomized="0"
       d="m 19.294706,99.110207 -2.843025,-1.406609 -1.619612,2.727302 0.459221,-3.138539 -3.09431,-0.697558 3.12684,-0.533118 -0.292778,-3.158421 1.473273,2.809059 2.913363,-1.254454 -2.216307,2.269212 z"
       inkscape:transform-center-x="0.34716627"
       inkscape:transform-center-y="-0.032326336" />
    <path
       sodipodi:type="star"
       style="fill:#9393ac;stroke:none;stroke-width:0.755999;stroke-dasharray:none"
       id="path32"
       inkscape:flatsided="false"
       sodipodi:sides="5"
       sodipodi:cx="59.329033"
       sodipodi:cy="158.68463"
       sodipodi:r1="13.608529"
       sodipodi:r2="3.5998433"
       sodipodi:arg1="2.5220938"
       sodipodi:arg2="3.1504123"
       inkscape:rounded="0"
       inkscape:randomized="0"
       d="m 48.249383,166.58611 7.479947,-7.93323 -7.338853,-8.06393 9.856381,4.66235 5.401425,-9.47156 -1.388367,10.81472 10.677117,2.21019 -10.714441,2.02152 1.197397,10.83753 -5.233521,-9.56536 z"
       inkscape:transform-center-x="-1.2641743"
       inkscape:transform-center-y="0.03708651" />
    <path
       sodipodi:type="star"
       style="fill:#ffff00;stroke:none;stroke-width:0.755999;stroke-dasharray:none"
       id="path33"
       inkscape:flatsided="false"
       sodipodi:sides="5"
       sodipodi:cx="57.262733"
       sodipodi:cy="105.54468"
       sodipodi:r1="7.4552288"
       sodipodi:r2="1.9721202"
       sodipodi:arg1="0.79984084"
       sodipodi:arg2="1.4281594"
       inkscape:rounded="0"
       inkscape:randomized="0"
       d="m 62.457693,110.8919 -4.914615,-3.39513 -3.760529,4.64099 1.710265,-5.72323 -5.575912,-2.14233 5.971617,-0.14202 0.314425,-5.96502 1.980397,5.63546 5.770238,-1.54426 -4.747664,3.62492 z"
       inkscape:transform-center-x="0.32749352"
       inkscape:transform-center-y="-0.39321841" />
    <path
       sodipodi:type="star"
       style="fill:#ffff00;stroke:none;stroke-width:0.755999;stroke-dasharray:none"
       id="path34"
       inkscape:flatsided="false"
       sodipodi:sides="5"
       sodipodi:cx="111.21987"
       sodipodi:cy="109.82449"
       sodipodi:r1="3.4457529"
       sodipodi:r2="0.91149974"
       sodipodi:arg1="0.79906968"
       sodipodi:arg2="1.4273882"
       inkscape:rounded="0"
       inkscape:randomized="0"
       d="m 113.62285,112.29409 -2.27271,-1.56745 -1.73643,2.14637 0.78843,-2.64585 -2.57791,-0.98818 2.75999,-0.0678 0.14319,-2.7571 0.91734,2.60396 2.66641,-0.7158 -2.19304,1.67711 z"
       inkscape:transform-center-x="0.15217895"
       inkscape:transform-center-y="-0.18093434" />
    <path
       sodipodi:type="star"
       style="fill:#ffff00;stroke:none;stroke-width:0.755999;stroke-dasharray:none"
       id="path35"
       inkscape:flatsided="false"
       sodipodi:sides="5"
       sodipodi:cx="153.11052"
       sodipodi:cy="145.85268"
       sodipodi:r1="6.1124411"
       sodipodi:r2="1.6169147"
       sodipodi:arg1="0.3051382"
       sodipodi:arg2="0.93345673"
       inkscape:rounded="0"
       inkscape:randomized="0"
       d="m 158.9406,147.68901 -4.86792,-0.53685 -0.90702,4.81271 -0.9937,-4.79556 -4.85744,0.62458 4.25378,-2.42698 -2.09505,-4.42669 3.62268,3.29561 3.56264,-3.36043 -2.01484,4.46377 z"
       inkscape:transform-center-x="-0.017037256"
       inkscape:transform-center-y="0.56745537" />
    <path
       sodipodi:type="star"
       style="fill:#ffff00;stroke:none;stroke-width:0.755999;stroke-dasharray:none"
       id="path36"
       inkscape:flatsided="false"
       sodipodi:sides="5"
       sodipodi:cx="12.99212"
       sodipodi:cy="137.80244"
       sodipodi:r1="4.7144818"
       sodipodi:r2="1.2471147"
       sodipodi:arg1="1.0036652"
       sodipodi:arg2="1.6319838"
       inkscape:rounded="0"
       inkscape:randomized="0"
       d="m 15.524808,141.77885 -2.608948,-2.73162 -2.9228864,2.39272 1.7917234,-3.32537 -3.1788396,-2.04044 3.7162946,0.67643 0.958255,-3.65378 0.505072,3.74343 3.771074,-0.21773 -3.404142,1.63714 z"
       inkscape:transform-center-x="-0.089085444"
       inkscape:transform-center-y="-0.36462675" />
    <path
       sodipodi:type="star"
       style="fill:#f9f9f9;stroke:none;stroke-width:0.755999;stroke-dasharray:none"
       id="path37"
       inkscape:flatsided="false"
       sodipodi:sides="5"
       sodipodi:cx="104.52064"
       sodipodi:cy="203.0482"
       sodipodi:r1="2.7218454"
       sodipodi:r2="0.72000557"
       sodipodi:arg1="1.7023604"
       sodipodi:arg2="2.3306789"
       inkscape:rounded="0"
       inkscape:randomized="0"
       d="m 104.16357,205.74653 -0.1389,-2.17638 -2.18063,-0.0277 2.02694,-0.80464 -0.64751,-2.08246 1.39162,1.67908 1.78045,-1.25933 -1.16687,1.84237 1.74789,1.30416 -2.11279,-0.54044 z"
       inkscape:transform-center-x="0.11034044"
       inkscape:transform-center-y="0.15272562" />
    <path
       sodipodi:type="star"
       style="fill:#f9f9f9;stroke:none;stroke-width:0.755999;stroke-dasharray:none"
       id="path38"
       inkscape:flatsided="false"
       sodipodi:sides="5"
       sodipodi:cx="161.90698"
       sodipodi:cy="211.1124"
       sodipodi:r1="8.606267"
       sodipodi:r2="2.2766025"
       sodipodi:arg1="0.96431804"
       sodipodi:arg2="1.5926366"
       inkscape:rounded="0"
       inkscape:randomized="0"
       d="m 166.81236,218.18383 -4.9551,-4.79537 -5.15976,4.57442 3.02946,-6.19443 -5.94499,-3.49365 6.8274,0.967 1.48556,-6.73362 1.19011,6.79207 6.86312,-0.66795 -6.09188,3.23072 z"
       inkscape:transform-center-x="-0.058077096"
       inkscape:transform-center-y="-0.76639545" />
    <path
       sodipodi:type="star"
       style="fill:#f9f9f9;stroke:none;stroke-width:0.755999;stroke-dasharray:none"
       id="path39"
       inkscape:flatsided="false"
       sodipodi:sides="5"
       sodipodi:cx="33.963818"
       sodipodi:cy="187.14584"
       sodipodi:r1="6.7264948"
       sodipodi:r2="1.7793492"
       sodipodi:arg1="0.50080498"
       sodipodi:arg2="1.1291235"
       inkscape:rounded="0"
       inkscape:randomized="0"
       d="m 39.864274,190.37545 -5.139869,-1.62101 -2.008782,5.00107 -0.04664,-5.38922 -5.377049,-0.36505 5.111045,-1.70972 -1.314417,-5.22668 3.205439,4.33256 4.564694,-2.86522 -3.129974,4.38739 z"
       inkscape:transform-center-x="0.38571381"
       inkscape:transform-center-y="0.26432977" />
    <path
       sodipodi:type="star"
       style="fill:#f9f9f9;stroke:none;stroke-width:0.755999;stroke-dasharray:none"
       id="path40"
       inkscape:flatsided="false"
       sodipodi:sides="5"
       sodipodi:cx="45.383598"
       sodipodi:cy="209.42763"
       sodipodi:r1="5.673305"
       sodipodi:r2="1.5007505"
       sodipodi:arg1="1.5707963"
       sodipodi:arg2="2.1991149"
       inkscape:rounded="0"
       inkscape:randomized="0"
       d="m 45.383598,215.10093 -0.882119,-4.45917 -4.513514,0.53902 3.968335,-2.21691 -1.907387,-4.12604 3.334685,3.08905 3.334685,-3.08905 -1.907386,4.12604 3.968335,2.21691 -4.513515,-0.53902 z"
       inkscape:transform-center-y="0.5417498" />
    <path
       sodipodi:type="star"
       style="fill:#f9f9f9;stroke:none;stroke-width:0.755999;stroke-dasharray:none"
       id="path41"
       inkscape:flatsided="false"
       sodipodi:sides="5"
       sodipodi:cx="69.825584"
       sodipodi:cy="192.9592"
       sodipodi:r1="6.9770479"
       sodipodi:r2="1.8456275"
       sodipodi:arg1="1.0482908"
       sodipodi:arg2="1.6766094"
       inkscape:rounded="0"
       inkscape:randomized="0"
       d="m 73.307501,199.00531 -3.676844,-4.21081 -4.479295,3.34455 2.868508,-4.7981 -4.56503,-3.22654 5.449679,1.24542 1.657951,-5.33866 0.499579,5.56781 5.5897,-0.0729 -5.140922,2.19568 z"
       inkscape:transform-center-x="-0.22770934"
       inkscape:transform-center-y="-0.4459596" />
    <path
       sodipodi:type="star"
       style="fill:#f9f9f9;stroke:none;stroke-width:0.755999;stroke-dasharray:none"
       id="path42"
       inkscape:flatsided="false"
       sodipodi:sides="5"
       sodipodi:cx="87.286018"
       sodipodi:cy="106.67541"
       sodipodi:r1="9.7777681"
       sodipodi:r2="2.5864978"
       sodipodi:arg1="1.9131683"
       sodipodi:arg2="2.5414869"
       inkscape:rounded="0"
       inkscape:randomized="0"
       d="m 84.003403,115.88568 1.148041,-7.7496 -7.639303,-1.73649 7.725076,-1.30291 -0.709172,-7.802015 3.626319,6.944365 7.20101,-3.08542 -5.483887,5.59476 5.159641,5.89512 -7.015547,-3.48661 z"
       inkscape:transform-center-x="0.85226154"
       inkscape:transform-center-y="-0.085234742" />
  </g>
</svg>
