<?xml version="1.0" encoding="UTF-8" standalone="no"?>
<!-- Created with Inkscape (http://www.inkscape.org/) -->

<svg
   width="210mm"
   height="297mm"
   viewBox="0 0 210 297"
   version="1.1"
   id="svg1"
   inkscape:version="1.3.2 (1:1.3.2+202311252150+091e20ef0f)"
   sodipodi:docname="Reto6.svg"
   xmlns:inkscape="http://www.inkscape.org/namespaces/inkscape"
   xmlns:sodipodi="http://sodipodi.sourceforge.net/DTD/sodipodi-0.dtd"
   xmlns="http://www.w3.org/2000/svg"
   xmlns:svg="http://www.w3.org/2000/svg">
  <sodipodi:namedview
     id="namedview1"
     pagecolor="#ffffff"
     bordercolor="#000000"
     borderopacity="0.25"
     inkscape:showpageshadow="2"
     inkscape:pageopacity="0.0"
     inkscape:pagecheckerboard="0"
     inkscape:deskcolor="#d1d1d1"
     inkscape:document-units="mm"
     inkscape:zoom="0.63606902"
     inkscape:cx="396.18342"
     inkscape:cy="561.25984"
     inkscape:window-width="1219"
     inkscape:window-height="802"
     inkscape:window-x="701"
     inkscape:window-y="195"
     inkscape:window-maximized="0"
     inkscape:current-layer="layer1" />
  <defs
     id="defs1" />
  <g
     inkscape:label="Layer 1"
     inkscape:groupmode="layer"
     id="layer1">
    <path
       style="fill:#ffffff;stroke:#000000;stroke-width:1.556;stroke-opacity:1"
       d="M 80.835541,126.51382 C 60.73886,79.533284 87.5725,85.693275 87.5725,85.693275 l 10.841022,40.807085 c 7.202858,-13.48546 9.362738,-37.767577 21.608568,-40.456366 37.00881,7.056628 -4.71879,30.801306 -7.07818,46.201966 15.6667,-8.46906 34.87654,-33.961477 47.00009,-25.40717 22.09691,24.36311 -26.65689,22.46617 -41.59603,33.10227 15.69158,4.00553 63.46822,-22.27952 47.07083,12.02029 -10.88721,10.56041 -32.63871,4.24477 -48.95806,6.36715 12.91182,7.04437 38.11029,-3.00538 38.32989,21.69738 -24.10757,20.0585 -35.02851,-6.03154 -52.05668,-10.74841 -2.750639,11.62069 8.93558,26.62453 -12.904049,33.77188 C 58.842535,188.6254 88.208416,178.82449 87.397674,166.71206 76.350486,174.2129 71.791748,186.42121 54.078269,189.08554 26.8013,162.39991 64.026985,165.66467 77.220158,157.77046 63.519528,153.54897 45.431326,155.58109 36.118268,145.106 21.877386,113.18787 58.868379,140.2306 73.657226,141.72171 58.373127,129.54933 39.89731,133.69943 27.80493,105.20458 41.102167,76.179044 62.718961,107.0968 80.835541,126.51382 Z"
       id="path1"
       sodipodi:nodetypes="ccccccccccccccccccc" />
    <ellipse
       style="fill:#ffff00;stroke:#000000;stroke-width:1.556;stroke-opacity:1"
       id="path2"
       ry="22.370596"
       rx="25.490965"
       cy="145.79153"
       cx="94.383377" />
  </g>
</svg>
